<?xml version="1.0" encoding="UTF-8" standalone="no"?>
<!DOCTYPE svg PUBLIC "-//W3C//DTD SVG 1.1//EN"
 "http://www.w3.org/Graphics/SVG/1.1/DTD/svg11.dtd">
<!-- Generated by graphviz version 2.43.0 (0)
 -->
<!-- Title: G Pages: 1 -->
<svg width="969pt" height="526pt"
 viewBox="0.00 0.00 969.00 526.00" xmlns="http://www.w3.org/2000/svg" xmlns:xlink="http://www.w3.org/1999/xlink">
<g id="graph0" class="graph" transform="scale(1 1) rotate(0) translate(4 522)">
<title>G</title>
<polygon fill="white" stroke="transparent" points="-4,4 -4,-522 965,-522 965,4 -4,4"/>
<g id="clust1" class="cluster">
<title>cluster_root</title>
<g id="a_clust1"><a xlink:title="eventq_index=0&#10;full_system=false&#10;sim_quantum=0&#10;time_sync_enable=false&#10;time_sync_period=100000000000&#10;time_sync_spin_threshold=100000000">
<path fill="#bab6ae" stroke="#000000" d="M20,-8C20,-8 941,-8 941,-8 947,-8 953,-14 953,-20 953,-20 953,-498 953,-498 953,-504 947,-510 941,-510 941,-510 20,-510 20,-510 14,-510 8,-504 8,-498 8,-498 8,-20 8,-20 8,-14 14,-8 20,-8"/>
<text text-anchor="middle" x="480.5" y="-494.8" font-family="Arial" font-size="14.00" fill="#000000">root </text>
<text text-anchor="middle" x="480.5" y="-479.8" font-family="Arial" font-size="14.00" fill="#000000">: Root</text>
</a>
</g>
</g>
<g id="clust2" class="cluster">
<title>cluster_system</title>
<g id="a_clust2"><a xlink:title="auto_unlink_shared_backstore=false&#10;cache_line_size=64&#10;eventq_index=0&#10;exit_on_work_items=false&#10;init_param=0&#10;m5ops_base=0&#10;mem_mode=timing&#10;mem_ranges=0:536870912 536870912:1073741824 1073741824:1610612736 1610612736:2147483648&#10;memories=system.mem_ctrl.dram system.mem_ctrl2.dram&#10;mmap_using_noreserve=false&#10;multi_thread=false&#10;&#10;um_work_ids=16&#10;&#13;eadfile=&#10;&#13;edirect_paths=&#10;shadow_rom_ranges=&#10;shared_backstore=&#10;symbolfile=&#10;thermal_components=&#10;thermal_model=Null&#10;work_begin_ckpt_count=0&#10;work_begin_cpu_id_exit=&#45;1&#10;work_begin_exit_count=0&#10;work_cpus_ckpt_count=0&#10;work_end_ckpt_count=0&#10;work_end_exit_count=0&#10;work_item_id=&#45;1&#10;workload=system.workload">
<path fill="#e4e7eb" stroke="#000000" d="M28,-16C28,-16 933,-16 933,-16 939,-16 945,-22 945,-28 945,-28 945,-452 945,-452 945,-458 939,-464 933,-464 933,-464 28,-464 28,-464 22,-464 16,-458 16,-452 16,-452 16,-28 16,-28 16,-22 22,-16 28,-16"/>
<text text-anchor="middle" x="480.5" y="-448.8" font-family="Arial" font-size="14.00" fill="#000000">system </text>
<text text-anchor="middle" x="480.5" y="-433.8" font-family="Arial" font-size="14.00" fill="#000000">: System</text>
</a>
</g>
</g>
<g id="clust6" class="cluster">
<title>cluster_system_cpu</title>
<g id="a_clust6"><a xlink:title="branchPred=Null&#10;checker=Null&#10;clk_domain=system.clk_domain&#10;cpu_id=&#45;1&#10;decoder=system.cpu.decoder&#10;do_checkpoint_insts=true&#10;do_statistics_insts=true&#10;eventq_index=0&#10;function_trace=false&#10;function_trace_start=0&#10;interrupts=system.cpu.interrupts&#10;isa=system.cpu.isa&#10;max_insts_all_threads=0&#10;max_insts_any_thread=0&#10;mmu=system.cpu.mmu&#10;&#10;umThreads=1&#10;power_gating_on_idle=false&#10;power_model=&#10;power_state=system.cpu.power_state&#10;progress_interval=0&#10;pwr_gating_latency=300&#10;simpoint_start_insts=&#10;socket_id=0&#10;switched_out=false&#10;syscallRetryLatency=10000&#10;system=system&#10;tracer=system.cpu.tracer&#10;workload=system.cpu.workload">
<path fill="#bbc6d9" stroke="#000000" d="M426,-24C426,-24 925,-24 925,-24 931,-24 937,-30 937,-36 937,-36 937,-156 937,-156 937,-162 931,-168 925,-168 925,-168 426,-168 426,-168 420,-168 414,-162 414,-156 414,-156 414,-36 414,-36 414,-30 420,-24 426,-24"/>
<text text-anchor="middle" x="675.5" y="-152.8" font-family="Arial" font-size="14.00" fill="#000000">cpu </text>
<text text-anchor="middle" x="675.5" y="-137.8" font-family="Arial" font-size="14.00" fill="#000000">: X86TimingSimpleCPU</text>
</a>
</g>
</g>
<g id="clust18" class="cluster">
<title>cluster_system_cpu_interrupts</title>
<g id="a_clust18"><a xlink:title="clk_domain=system.cpu.interrupts.clk_domain&#10;eventq_index=0&#10;int_latency=1000&#10;pio_latency=100000&#10;system=system">
<path fill="#bab6ae" stroke="#000000" d="M434,-32C434,-32 711,-32 711,-32 717,-32 723,-38 723,-44 723,-44 723,-110 723,-110 723,-116 717,-122 711,-122 711,-122 434,-122 434,-122 428,-122 422,-116 422,-110 422,-110 422,-44 422,-44 422,-38 428,-32 434,-32"/>
<text text-anchor="middle" x="572.5" y="-106.8" font-family="Arial" font-size="14.00" fill="#000000">interrupts </text>
<text text-anchor="middle" x="572.5" y="-91.8" font-family="Arial" font-size="14.00" fill="#000000">: X86LocalApic</text>
</a>
</g>
</g>
<g id="clust22" class="cluster">
<title>cluster_system_cpu1</title>
<g id="a_clust22"><a xlink:title="branchPred=Null&#10;checker=Null&#10;clk_domain=system.clk_domain&#10;cpu_id=&#45;1&#10;decoder=system.cpu1.decoder&#10;do_checkpoint_insts=true&#10;do_statistics_insts=true&#10;eventq_index=0&#10;function_trace=false&#10;function_trace_start=0&#10;interrupts=system.cpu1.interrupts&#10;isa=system.cpu1.isa&#10;max_insts_all_threads=0&#10;max_insts_any_thread=0&#10;mmu=system.cpu1.mmu&#10;&#10;umThreads=1&#10;power_gating_on_idle=false&#10;power_model=&#10;power_state=system.cpu1.power_state&#10;progress_interval=0&#10;pwr_gating_latency=300&#10;simpoint_start_insts=&#10;socket_id=0&#10;switched_out=false&#10;syscallRetryLatency=10000&#10;system=system&#10;tracer=system.cpu1.tracer&#10;workload=system.cpu.workload">
<path fill="#bbc6d9" stroke="#000000" d="M214,-176C214,-176 507,-176 507,-176 513,-176 519,-182 519,-188 519,-188 519,-308 519,-308 519,-314 513,-320 507,-320 507,-320 214,-320 214,-320 208,-320 202,-314 202,-308 202,-308 202,-188 202,-188 202,-182 208,-176 214,-176"/>
<text text-anchor="middle" x="360.5" y="-304.8" font-family="Arial" font-size="14.00" fill="#000000">cpu1 </text>
<text text-anchor="middle" x="360.5" y="-289.8" font-family="Arial" font-size="14.00" fill="#000000">: X86TimingSimpleCPU</text>
</a>
</g>
</g>
<g id="clust34" class="cluster">
<title>cluster_system_cpu1_interrupts</title>
<g id="a_clust34"><a xlink:title="clk_domain=system.cpu1.interrupts.clk_domain&#10;eventq_index=0&#10;int_latency=1000&#10;pio_latency=100000&#10;system=system">
<path fill="#bab6ae" stroke="#000000" d="M222,-184C222,-184 499,-184 499,-184 505,-184 511,-190 511,-196 511,-196 511,-262 511,-262 511,-268 505,-274 499,-274 499,-274 222,-274 222,-274 216,-274 210,-268 210,-262 210,-262 210,-196 210,-196 210,-190 216,-184 222,-184"/>
<text text-anchor="middle" x="360.5" y="-258.8" font-family="Arial" font-size="14.00" fill="#000000">interrupts </text>
<text text-anchor="middle" x="360.5" y="-243.8" font-family="Arial" font-size="14.00" fill="#000000">: X86LocalApic</text>
</a>
</g>
</g>
<g id="clust37" class="cluster">
<title>cluster_system_memobj</title>
<g id="a_clust37"><a xlink:title="eventq_index=0">
<path fill="#bab6ae" stroke="#000000" d="M673,-328C673,-328 923,-328 923,-328 929,-328 935,-334 935,-340 935,-340 935,-406 935,-406 935,-412 929,-418 923,-418 923,-418 673,-418 673,-418 667,-418 661,-412 661,-406 661,-406 661,-340 661,-340 661,-334 667,-328 673,-328"/>
<text text-anchor="middle" x="798" y="-402.8" font-family="Arial" font-size="14.00" fill="#000000">memobj </text>
<text text-anchor="middle" x="798" y="-387.8" font-family="Arial" font-size="14.00" fill="#000000">: SimpleMemobj</text>
</a>
</g>
</g>
<g id="clust38" class="cluster">
<title>cluster_system_membus</title>
<g id="a_clust38"><a xlink:title="clk_domain=system.clk_domain&#10;eventq_index=0&#10;forward_latency=4&#10;frontend_latency=3&#10;header_latency=1&#10;max_outstanding_snoops=512&#10;max_routing_table_size=512&#10;point_of_coherency=true&#10;point_of_unification=true&#10;power_model=&#10;power_state=system.membus.power_state&#10;&#13;esponse_latency=2&#10;snoop_filter=system.membus.snoop_filter&#10;snoop_response_latency=4&#10;system=system&#10;use_default_range=false&#10;width=16">
<path fill="#6f798c" stroke="#000000" d="M539,-184C539,-184 775,-184 775,-184 781,-184 787,-190 787,-196 787,-196 787,-262 787,-262 787,-268 781,-274 775,-274 775,-274 539,-274 539,-274 533,-274 527,-268 527,-262 527,-262 527,-196 527,-196 527,-190 533,-184 539,-184"/>
<text text-anchor="middle" x="657" y="-258.8" font-family="Arial" font-size="14.00" fill="#000000">membus </text>
<text text-anchor="middle" x="657" y="-243.8" font-family="Arial" font-size="14.00" fill="#000000">: SystemXBar</text>
</a>
</g>
</g>
<g id="clust41" class="cluster">
<title>cluster_system_membus2</title>
<g id="a_clust41"><a xlink:title="clk_domain=system.clk_domain&#10;eventq_index=0&#10;forward_latency=4&#10;frontend_latency=3&#10;header_latency=1&#10;max_outstanding_snoops=512&#10;max_routing_table_size=512&#10;point_of_coherency=true&#10;point_of_unification=true&#10;power_model=&#10;power_state=system.membus2.power_state&#10;&#13;esponse_latency=2&#10;snoop_filter=system.membus2.snoop_filter&#10;snoop_response_latency=4&#10;system=system&#10;use_default_range=false&#10;width=16">
<path fill="#6f798c" stroke="#000000" d="M269,-328C269,-328 505,-328 505,-328 511,-328 517,-334 517,-340 517,-340 517,-406 517,-406 517,-412 511,-418 505,-418 505,-418 269,-418 269,-418 263,-418 257,-412 257,-406 257,-406 257,-340 257,-340 257,-334 263,-328 269,-328"/>
<text text-anchor="middle" x="387" y="-402.8" font-family="Arial" font-size="14.00" fill="#000000">membus2 </text>
<text text-anchor="middle" x="387" y="-387.8" font-family="Arial" font-size="14.00" fill="#000000">: SystemXBar</text>
</a>
</g>
</g>
<g id="clust44" class="cluster">
<title>cluster_system_cxlswitch</title>
<g id="a_clust44"><a xlink:title="clk_domain=system.clk_domain&#10;eventq_index=0&#10;&#10;atency=1&#10;power_model=&#10;power_state=system.cxlswitch.power_state">
<path fill="#bab6ae" stroke="#000000" d="M36,-32C36,-32 394,-32 394,-32 400,-32 406,-38 406,-44 406,-44 406,-110 406,-110 406,-116 400,-122 394,-122 394,-122 36,-122 36,-122 30,-122 24,-116 24,-110 24,-110 24,-44 24,-44 24,-38 30,-32 36,-32"/>
<text text-anchor="middle" x="215" y="-106.8" font-family="Arial" font-size="14.00" fill="#000000">cxlswitch </text>
<text text-anchor="middle" x="215" y="-91.8" font-family="Arial" font-size="14.00" fill="#000000">: CXLSwitch</text>
</a>
</g>
</g>
<g id="clust46" class="cluster">
<title>cluster_system_mem_ctrl</title>
<g id="a_clust46"><a xlink:title="clk_domain=system.clk_domain&#10;command_window=10000&#10;disable_sanity_check=false&#10;dram=system.mem_ctrl.dram&#10;eventq_index=0&#10;mem_sched_policy=frfcfs&#10;min_reads_per_switch=16&#10;min_writes_per_switch=16&#10;power_model=&#10;power_state=system.mem_ctrl.power_state&#10;qos_policy=Null&#10;qos_priorities=1&#10;qos_priority_escalation=false&#10;qos_q_policy=fifo&#10;qos_requestors= &#160;&#160;&#160;&#160;&#160;&#160;&#160;&#160;&#160;&#160;&#160;&#160;&#160;&#160;&#10;qos_syncro_scheduler=false&#10;qos_turnaround_policy=Null&#10;static_backend_latency=10000&#10;static_frontend_latency=10000&#10;system=system&#10;write_high_thresh_perc=85&#10;write_low_thresh_perc=50">
<path fill="#bab6ae" stroke="#000000" d="M129,-184C129,-184 182,-184 182,-184 188,-184 194,-190 194,-196 194,-196 194,-262 194,-262 194,-268 188,-274 182,-274 182,-274 129,-274 129,-274 123,-274 117,-268 117,-262 117,-262 117,-196 117,-196 117,-190 123,-184 129,-184"/>
<text text-anchor="middle" x="155.5" y="-258.8" font-family="Arial" font-size="14.00" fill="#000000">mem_ctrl </text>
<text text-anchor="middle" x="155.5" y="-243.8" font-family="Arial" font-size="14.00" fill="#000000">: MemCtrl</text>
</a>
</g>
</g>
<g id="clust50" class="cluster">
<title>cluster_system_mem_ctrl2</title>
<g id="a_clust50"><a xlink:title="clk_domain=system.clk_domain&#10;command_window=10000&#10;disable_sanity_check=false&#10;dram=system.mem_ctrl2.dram&#10;eventq_index=0&#10;mem_sched_policy=frfcfs&#10;min_reads_per_switch=16&#10;min_writes_per_switch=16&#10;power_model=&#10;power_state=system.mem_ctrl2.power_state&#10;qos_policy=Null&#10;qos_priorities=1&#10;qos_priority_escalation=false&#10;qos_q_policy=fifo&#10;qos_requestors= &#160;&#160;&#160;&#160;&#160;&#160;&#160;&#160;&#160;&#160;&#160;&#160;&#160;&#160;&#10;qos_syncro_scheduler=false&#10;qos_turnaround_policy=Null&#10;static_backend_latency=10000&#10;static_frontend_latency=10000&#10;system=system&#10;write_high_thresh_perc=85&#10;write_low_thresh_perc=50">
<path fill="#bab6ae" stroke="#000000" d="M36,-184C36,-184 97,-184 97,-184 103,-184 109,-190 109,-196 109,-196 109,-262 109,-262 109,-268 103,-274 97,-274 97,-274 36,-274 36,-274 30,-274 24,-268 24,-262 24,-262 24,-196 24,-196 24,-190 30,-184 36,-184"/>
<text text-anchor="middle" x="66.5" y="-258.8" font-family="Arial" font-size="14.00" fill="#000000">mem_ctrl2 </text>
<text text-anchor="middle" x="66.5" y="-243.8" font-family="Arial" font-size="14.00" fill="#000000">: MemCtrl</text>
</a>
</g>
</g>
<!-- system_system_port -->
<g id="node1" class="node">
<title>system_system_port</title>
<path fill="#b6b8bc" stroke="#000000" d="M638.5,-372C638.5,-372 571.5,-372 571.5,-372 565.5,-372 559.5,-366 559.5,-360 559.5,-360 559.5,-348 559.5,-348 559.5,-342 565.5,-336 571.5,-336 571.5,-336 638.5,-336 638.5,-336 644.5,-336 650.5,-342 650.5,-348 650.5,-348 650.5,-360 650.5,-360 650.5,-366 644.5,-372 638.5,-372"/>
<text text-anchor="middle" x="605" y="-350.3" font-family="Arial" font-size="14.00" fill="#000000">system_port</text>
</g>
<!-- system_membus_cpu_side_ports -->
<g id="node13" class="node">
<title>system_membus_cpu_side_ports</title>
<path fill="#586070" stroke="#000000" d="M767,-228C767,-228 683,-228 683,-228 677,-228 671,-222 671,-216 671,-216 671,-204 671,-204 671,-198 677,-192 683,-192 683,-192 767,-192 767,-192 773,-192 779,-198 779,-204 779,-204 779,-216 779,-216 779,-222 773,-228 767,-228"/>
<text text-anchor="middle" x="725" y="-206.3" font-family="Arial" font-size="14.00" fill="#000000">cpu_side_ports</text>
</g>
<!-- system_system_port&#45;&gt;system_membus_cpu_side_ports -->
<g id="edge1" class="edge">
<title>system_system_port&#45;&gt;system_membus_cpu_side_ports</title>
<path fill="none" stroke="black" d="M641.1,-335.94C648.54,-331.41 655.94,-326.07 662,-320 685.79,-296.19 703.76,-261.58 714.3,-237.78"/>
<polygon fill="black" stroke="black" points="717.64,-238.88 718.35,-228.31 711.2,-236.12 717.64,-238.88"/>
</g>
<!-- system_cpu_icache_port -->
<g id="node2" class="node">
<title>system_cpu_icache_port</title>
<path fill="#959ead" stroke="#000000" d="M807,-76C807,-76 745,-76 745,-76 739,-76 733,-70 733,-64 733,-64 733,-52 733,-52 733,-46 739,-40 745,-40 745,-40 807,-40 807,-40 813,-40 819,-46 819,-52 819,-52 819,-64 819,-64 819,-70 813,-76 807,-76"/>
<text text-anchor="middle" x="776" y="-54.3" font-family="Arial" font-size="14.00" fill="#000000">icache_port</text>
</g>
<!-- system_cpu_dcache_port -->
<g id="node3" class="node">
<title>system_cpu_dcache_port</title>
<path fill="#959ead" stroke="#000000" d="M916.5,-76C916.5,-76 849.5,-76 849.5,-76 843.5,-76 837.5,-70 837.5,-64 837.5,-64 837.5,-52 837.5,-52 837.5,-46 843.5,-40 849.5,-40 849.5,-40 916.5,-40 916.5,-40 922.5,-40 928.5,-46 928.5,-52 928.5,-52 928.5,-64 928.5,-64 928.5,-70 922.5,-76 916.5,-76"/>
<text text-anchor="middle" x="883" y="-54.3" font-family="Arial" font-size="14.00" fill="#000000">dcache_port</text>
</g>
<!-- system_cpu_interrupts_int_requestor -->
<g id="node4" class="node">
<title>system_cpu_interrupts_int_requestor</title>
<path fill="#94918b" stroke="#000000" d="M702.5,-76C702.5,-76 631.5,-76 631.5,-76 625.5,-76 619.5,-70 619.5,-64 619.5,-64 619.5,-52 619.5,-52 619.5,-46 625.5,-40 631.5,-40 631.5,-40 702.5,-40 702.5,-40 708.5,-40 714.5,-46 714.5,-52 714.5,-52 714.5,-64 714.5,-64 714.5,-70 708.5,-76 702.5,-76"/>
<text text-anchor="middle" x="667" y="-54.3" font-family="Arial" font-size="14.00" fill="#000000">int_requestor</text>
</g>
<!-- system_cpu_interrupts_int_responder -->
<g id="node5" class="node">
<title>system_cpu_interrupts_int_responder</title>
<path fill="#94918b" stroke="#000000" d="M589.5,-76C589.5,-76 514.5,-76 514.5,-76 508.5,-76 502.5,-70 502.5,-64 502.5,-64 502.5,-52 502.5,-52 502.5,-46 508.5,-40 514.5,-40 514.5,-40 589.5,-40 589.5,-40 595.5,-40 601.5,-46 601.5,-52 601.5,-52 601.5,-64 601.5,-64 601.5,-70 595.5,-76 589.5,-76"/>
<text text-anchor="middle" x="552" y="-54.3" font-family="Arial" font-size="14.00" fill="#000000">int_responder</text>
</g>
<!-- system_cpu_interrupts_pio -->
<g id="node6" class="node">
<title>system_cpu_interrupts_pio</title>
<path fill="#94918b" stroke="#000000" d="M472,-76C472,-76 442,-76 442,-76 436,-76 430,-70 430,-64 430,-64 430,-52 430,-52 430,-46 436,-40 442,-40 442,-40 472,-40 472,-40 478,-40 484,-46 484,-52 484,-52 484,-64 484,-64 484,-70 478,-76 472,-76"/>
<text text-anchor="middle" x="457" y="-54.3" font-family="Arial" font-size="14.00" fill="#000000">pio</text>
</g>
<!-- system_cpu1_interrupts_int_requestor -->
<g id="node7" class="node">
<title>system_cpu1_interrupts_int_requestor</title>
<path fill="#94918b" stroke="#000000" d="M490.5,-228C490.5,-228 419.5,-228 419.5,-228 413.5,-228 407.5,-222 407.5,-216 407.5,-216 407.5,-204 407.5,-204 407.5,-198 413.5,-192 419.5,-192 419.5,-192 490.5,-192 490.5,-192 496.5,-192 502.5,-198 502.5,-204 502.5,-204 502.5,-216 502.5,-216 502.5,-222 496.5,-228 490.5,-228"/>
<text text-anchor="middle" x="455" y="-206.3" font-family="Arial" font-size="14.00" fill="#000000">int_requestor</text>
</g>
<!-- system_cpu1_interrupts_int_responder -->
<g id="node8" class="node">
<title>system_cpu1_interrupts_int_responder</title>
<path fill="#94918b" stroke="#000000" d="M377.5,-228C377.5,-228 302.5,-228 302.5,-228 296.5,-228 290.5,-222 290.5,-216 290.5,-216 290.5,-204 290.5,-204 290.5,-198 296.5,-192 302.5,-192 302.5,-192 377.5,-192 377.5,-192 383.5,-192 389.5,-198 389.5,-204 389.5,-204 389.5,-216 389.5,-216 389.5,-222 383.5,-228 377.5,-228"/>
<text text-anchor="middle" x="340" y="-206.3" font-family="Arial" font-size="14.00" fill="#000000">int_responder</text>
</g>
<!-- system_cpu1_interrupts_pio -->
<g id="node9" class="node">
<title>system_cpu1_interrupts_pio</title>
<path fill="#94918b" stroke="#000000" d="M260,-228C260,-228 230,-228 230,-228 224,-228 218,-222 218,-216 218,-216 218,-204 218,-204 218,-198 224,-192 230,-192 230,-192 260,-192 260,-192 266,-192 272,-198 272,-204 272,-204 272,-216 272,-216 272,-222 266,-228 260,-228"/>
<text text-anchor="middle" x="245" y="-206.3" font-family="Arial" font-size="14.00" fill="#000000">pio</text>
</g>
<!-- system_memobj_inst_port -->
<g id="node10" class="node">
<title>system_memobj_inst_port</title>
<path fill="#94918b" stroke="#000000" d="M823,-372C823,-372 779,-372 779,-372 773,-372 767,-366 767,-360 767,-360 767,-348 767,-348 767,-342 773,-336 779,-336 779,-336 823,-336 823,-336 829,-336 835,-342 835,-348 835,-348 835,-360 835,-360 835,-366 829,-372 823,-372"/>
<text text-anchor="middle" x="801" y="-350.3" font-family="Arial" font-size="14.00" fill="#000000">inst_port</text>
</g>
<!-- system_memobj_inst_port&#45;&gt;system_cpu_icache_port -->
<g id="edge2" class="edge">
<title>system_memobj_inst_port&#45;&gt;system_cpu_icache_port</title>
<path fill="none" stroke="black" d="M800.06,-325.57C798.72,-290.74 795.87,-228.82 791,-176 787.71,-140.31 781.91,-98.74 778.57,-76.01"/>
<polygon fill="black" stroke="black" points="796.57,-326.02 800.44,-335.88 803.56,-325.76 796.57,-326.02"/>
</g>
<!-- system_memobj_data_port -->
<g id="node11" class="node">
<title>system_memobj_data_port</title>
<path fill="#94918b" stroke="#000000" d="M915,-372C915,-372 865,-372 865,-372 859,-372 853,-366 853,-360 853,-360 853,-348 853,-348 853,-342 859,-336 865,-336 865,-336 915,-336 915,-336 921,-336 927,-342 927,-348 927,-348 927,-360 927,-360 927,-366 921,-372 915,-372"/>
<text text-anchor="middle" x="890" y="-350.3" font-family="Arial" font-size="14.00" fill="#000000">data_port</text>
</g>
<!-- system_memobj_data_port&#45;&gt;system_cpu_dcache_port -->
<g id="edge3" class="edge">
<title>system_memobj_data_port&#45;&gt;system_cpu_dcache_port</title>
<path fill="none" stroke="black" d="M889.35,-325.76C887.93,-266.06 884.57,-125.1 883.41,-76.12"/>
<polygon fill="black" stroke="black" points="885.86,-326.01 889.59,-335.92 892.85,-325.84 885.86,-326.01"/>
</g>
<!-- system_memobj_mem_side -->
<g id="node12" class="node">
<title>system_memobj_mem_side</title>
<path fill="#94918b" stroke="#000000" d="M737,-372C737,-372 681,-372 681,-372 675,-372 669,-366 669,-360 669,-360 669,-348 669,-348 669,-342 675,-336 681,-336 681,-336 737,-336 737,-336 743,-336 749,-342 749,-348 749,-348 749,-360 749,-360 749,-366 743,-372 737,-372"/>
<text text-anchor="middle" x="709" y="-350.3" font-family="Arial" font-size="14.00" fill="#000000">mem_side</text>
</g>
<!-- system_memobj_mem_side&#45;&gt;system_membus_cpu_side_ports -->
<g id="edge4" class="edge">
<title>system_memobj_mem_side&#45;&gt;system_membus_cpu_side_ports</title>
<path fill="none" stroke="black" d="M710.93,-335.87C713.66,-311.67 718.67,-267.21 721.91,-238.39"/>
<polygon fill="black" stroke="black" points="725.42,-238.52 723.06,-228.19 718.47,-237.73 725.42,-238.52"/>
</g>
<!-- system_membus_cpu_side_ports&#45;&gt;system_cpu_interrupts_int_requestor -->
<g id="edge5" class="edge">
<title>system_membus_cpu_side_ports&#45;&gt;system_cpu_interrupts_int_requestor</title>
<path fill="none" stroke="black" d="M714.61,-182.14C702.72,-151.37 683.58,-101.88 673.58,-76.01"/>
<polygon fill="black" stroke="black" points="711.48,-183.73 718.35,-191.79 718,-181.2 711.48,-183.73"/>
</g>
<!-- system_membus_mem_side_ports -->
<g id="node14" class="node">
<title>system_membus_mem_side_ports</title>
<path fill="#586070" stroke="#000000" d="M641,-228C641,-228 547,-228 547,-228 541,-228 535,-222 535,-216 535,-216 535,-204 535,-204 535,-198 541,-192 547,-192 547,-192 641,-192 641,-192 647,-192 653,-198 653,-204 653,-204 653,-216 653,-216 653,-222 647,-228 641,-228"/>
<text text-anchor="middle" x="594" y="-206.3" font-family="Arial" font-size="14.00" fill="#000000">mem_side_ports</text>
</g>
<!-- system_membus_mem_side_ports&#45;&gt;system_cpu_interrupts_int_responder -->
<g id="edge7" class="edge">
<title>system_membus_mem_side_ports&#45;&gt;system_cpu_interrupts_int_responder</title>
<path fill="none" stroke="black" d="M589.18,-191.79C581.93,-165.91 568.16,-116.73 559.57,-86.03"/>
<polygon fill="black" stroke="black" points="562.83,-84.69 556.76,-76.01 556.09,-86.58 562.83,-84.69"/>
</g>
<!-- system_membus_mem_side_ports&#45;&gt;system_cpu_interrupts_pio -->
<g id="edge6" class="edge">
<title>system_membus_mem_side_ports&#45;&gt;system_cpu_interrupts_pio</title>
<path fill="none" stroke="black" d="M553.91,-191.96C541.47,-186.76 527.7,-181.07 515,-176 505.72,-172.3 500.93,-175.19 494,-168 472.5,-145.69 463.47,-110.42 459.69,-86.07"/>
<polygon fill="black" stroke="black" points="463.15,-85.5 458.34,-76.06 456.21,-86.44 463.15,-85.5"/>
</g>
<!-- system_cxlswitch_cpu_side_port -->
<g id="node17" class="node">
<title>system_cxlswitch_cpu_side_port</title>
<path fill="#94918b" stroke="#000000" d="M385.5,-76C385.5,-76 308.5,-76 308.5,-76 302.5,-76 296.5,-70 296.5,-64 296.5,-64 296.5,-52 296.5,-52 296.5,-46 302.5,-40 308.5,-40 308.5,-40 385.5,-40 385.5,-40 391.5,-40 397.5,-46 397.5,-52 397.5,-52 397.5,-64 397.5,-64 397.5,-70 391.5,-76 385.5,-76"/>
<text text-anchor="middle" x="347" y="-54.3" font-family="Arial" font-size="14.00" fill="#000000">cpu_side_port</text>
</g>
<!-- system_membus_mem_side_ports&#45;&gt;system_cxlswitch_cpu_side_port -->
<g id="edge8" class="edge">
<title>system_membus_mem_side_ports&#45;&gt;system_cxlswitch_cpu_side_port</title>
<path fill="none" stroke="black" d="M559.79,-191.96C546.18,-185.91 530.16,-179.69 515,-176 493.99,-170.88 436.57,-179.08 418,-168 387.01,-149.51 367.04,-111.64 356.42,-85.78"/>
<polygon fill="black" stroke="black" points="359.57,-84.23 352.67,-76.19 353.05,-86.78 359.57,-84.23"/>
</g>
<!-- system_membus2_cpu_side_ports -->
<g id="node15" class="node">
<title>system_membus2_cpu_side_ports</title>
<path fill="#586070" stroke="#000000" d="M497,-372C497,-372 413,-372 413,-372 407,-372 401,-366 401,-360 401,-360 401,-348 401,-348 401,-342 407,-336 413,-336 413,-336 497,-336 497,-336 503,-336 509,-342 509,-348 509,-348 509,-360 509,-360 509,-366 503,-372 497,-372"/>
<text text-anchor="middle" x="455" y="-350.3" font-family="Arial" font-size="14.00" fill="#000000">cpu_side_ports</text>
</g>
<!-- system_membus2_cpu_side_ports&#45;&gt;system_cpu1_interrupts_int_requestor -->
<g id="edge9" class="edge">
<title>system_membus2_cpu_side_ports&#45;&gt;system_cpu1_interrupts_int_requestor</title>
<path fill="none" stroke="black" d="M455,-325.68C455,-296.89 455,-252.42 455,-228.19"/>
<polygon fill="black" stroke="black" points="451.5,-325.87 455,-335.87 458.5,-325.87 451.5,-325.87"/>
</g>
<!-- system_membus2_mem_side_ports -->
<g id="node16" class="node">
<title>system_membus2_mem_side_ports</title>
<path fill="#586070" stroke="#000000" d="M371,-372C371,-372 277,-372 277,-372 271,-372 265,-366 265,-360 265,-360 265,-348 265,-348 265,-342 271,-336 277,-336 277,-336 371,-336 371,-336 377,-336 383,-342 383,-348 383,-348 383,-360 383,-360 383,-366 377,-372 371,-372"/>
<text text-anchor="middle" x="324" y="-350.3" font-family="Arial" font-size="14.00" fill="#000000">mem_side_ports</text>
</g>
<!-- system_membus2_mem_side_ports&#45;&gt;system_cpu1_interrupts_int_responder -->
<g id="edge11" class="edge">
<title>system_membus2_mem_side_ports&#45;&gt;system_cpu1_interrupts_int_responder</title>
<path fill="none" stroke="black" d="M325.93,-335.87C328.66,-311.67 333.67,-267.21 336.91,-238.39"/>
<polygon fill="black" stroke="black" points="340.42,-238.52 338.06,-228.19 333.47,-237.73 340.42,-238.52"/>
</g>
<!-- system_membus2_mem_side_ports&#45;&gt;system_cpu1_interrupts_pio -->
<g id="edge10" class="edge">
<title>system_membus2_mem_side_ports&#45;&gt;system_cpu1_interrupts_pio</title>
<path fill="none" stroke="black" d="M296.26,-335.65C290.61,-331.11 285.14,-325.83 281,-320 263.49,-295.34 254.09,-261.62 249.33,-238.24"/>
<polygon fill="black" stroke="black" points="252.75,-237.47 247.47,-228.29 245.87,-238.77 252.75,-237.47"/>
</g>
<!-- system_cxlswitch_mem_side_port -->
<g id="node18" class="node">
<title>system_cxlswitch_mem_side_port</title>
<path fill="#94918b" stroke="#000000" d="M266.5,-76C266.5,-76 179.5,-76 179.5,-76 173.5,-76 167.5,-70 167.5,-64 167.5,-64 167.5,-52 167.5,-52 167.5,-46 173.5,-40 179.5,-40 179.5,-40 266.5,-40 266.5,-40 272.5,-40 278.5,-46 278.5,-52 278.5,-52 278.5,-64 278.5,-64 278.5,-70 272.5,-76 266.5,-76"/>
<text text-anchor="middle" x="223" y="-54.3" font-family="Arial" font-size="14.00" fill="#000000">mem_side_port</text>
</g>
<!-- system_cxlswitch_switch_side_port -->
<g id="node19" class="node">
<title>system_cxlswitch_switch_side_port</title>
<path fill="#94918b" stroke="#000000" d="M137.5,-76C137.5,-76 44.5,-76 44.5,-76 38.5,-76 32.5,-70 32.5,-64 32.5,-64 32.5,-52 32.5,-52 32.5,-46 38.5,-40 44.5,-40 44.5,-40 137.5,-40 137.5,-40 143.5,-40 149.5,-46 149.5,-52 149.5,-52 149.5,-64 149.5,-64 149.5,-70 143.5,-76 137.5,-76"/>
<text text-anchor="middle" x="91" y="-54.3" font-family="Arial" font-size="14.00" fill="#000000">switch_side_port</text>
</g>
<!-- system_mem_ctrl_port -->
<g id="node20" class="node">
<title>system_mem_ctrl_port</title>
<path fill="#94918b" stroke="#000000" d="M174,-228C174,-228 144,-228 144,-228 138,-228 132,-222 132,-216 132,-216 132,-204 132,-204 132,-198 138,-192 144,-192 144,-192 174,-192 174,-192 180,-192 186,-198 186,-204 186,-204 186,-216 186,-216 186,-222 180,-228 174,-228"/>
<text text-anchor="middle" x="159" y="-206.3" font-family="Arial" font-size="14.00" fill="#000000">port</text>
</g>
<!-- system_mem_ctrl_port&#45;&gt;system_cxlswitch_mem_side_port -->
<g id="edge12" class="edge">
<title>system_mem_ctrl_port&#45;&gt;system_cxlswitch_mem_side_port</title>
<path fill="none" stroke="black" d="M170.29,-182.54C183.41,-151.8 204.66,-101.99 215.74,-76.01"/>
<polygon fill="black" stroke="black" points="167.05,-181.22 166.34,-191.79 173.49,-183.97 167.05,-181.22"/>
</g>
<!-- system_mem_ctrl2_port -->
<g id="node21" class="node">
<title>system_mem_ctrl2_port</title>
<path fill="#94918b" stroke="#000000" d="M89,-228C89,-228 59,-228 59,-228 53,-228 47,-222 47,-216 47,-216 47,-204 47,-204 47,-198 53,-192 59,-192 59,-192 89,-192 89,-192 95,-192 101,-198 101,-204 101,-204 101,-216 101,-216 101,-222 95,-228 89,-228"/>
<text text-anchor="middle" x="74" y="-206.3" font-family="Arial" font-size="14.00" fill="#000000">port</text>
</g>
<!-- system_mem_ctrl2_port&#45;&gt;system_cxlswitch_switch_side_port -->
<g id="edge13" class="edge">
<title>system_mem_ctrl2_port&#45;&gt;system_cxlswitch_switch_side_port</title>
<path fill="none" stroke="black" d="M77.09,-181.73C80.58,-150.94 86.15,-101.77 89.07,-76.01"/>
<polygon fill="black" stroke="black" points="73.6,-181.46 75.95,-191.79 80.55,-182.25 73.6,-181.46"/>
</g>
</g>
</svg>
